<svg width="48" height="48" viewBox="0 0 48 48" fill="none" xmlns="http://www.w3.org/2000/svg">
<g clip-path="url(#clip0_2001_73)">
<path d="M19.84 26.88C18.4564 25.0351 17.7777 22.7566 17.9262 20.4553C18.0747 18.1541 19.0408 15.9817 20.65 14.33L31 3.78999C31.8618 2.90552 32.892 2.20257 34.0299 1.72261C35.1677 1.24264 36.3901 0.995361 37.625 0.995361C38.8599 0.995361 40.0823 1.24264 41.2202 1.72261C42.358 2.20257 43.3882 2.90552 44.25 3.78999C46.0098 5.59418 46.9948 8.01468 46.9948 10.535C46.9948 13.0553 46.0098 15.4758 44.25 17.28L37.33 24.77" stroke="white" stroke-width="2.02" stroke-miterlimit="10"/>
<path d="M20.66 27.82C20.37 27.5245 20.0994 27.2105 19.85 26.88" stroke="white" stroke-width="2.02" stroke-miterlimit="10"/>
<path d="M27 20.55C28.7478 22.3523 29.7253 24.7643 29.7253 27.275C29.7253 29.7856 28.7478 32.1977 27 34L17 44.21C16.1382 45.0945 15.108 45.7974 13.9702 46.2774C12.8323 46.7573 11.6099 47.0046 10.375 47.0046C9.14009 47.0046 7.91768 46.7573 6.77985 46.2774C5.64203 45.7974 4.61183 45.0945 3.75001 44.21C1.99023 42.4058 1.00525 39.9853 1.00525 37.465C1.00525 34.9447 1.99023 32.5242 3.75001 30.72L10.41 23.72" stroke="white" stroke-width="2.02" stroke-miterlimit="10"/>
</g>
<defs>
<clipPath id="clip0_2001_73">
<rect width="48" height="48" fill="white"/>
</clipPath>
</defs>
</svg>
