<svg width="48" height="48" viewBox="0 0 48 48" fill="none" xmlns="http://www.w3.org/2000/svg">
<path d="M33 47H15C12.8783 47 10.8434 46.1571 9.34315 44.6569C7.84285 43.1566 7 41.1217 7 39V19H41V39C41 41.1217 40.1571 43.1566 38.6569 44.6569C37.1566 46.1571 35.1217 47 33 47Z" stroke="black" stroke-width="2" stroke-miterlimit="10"/>
<path d="M14 19V11C14 8.34784 15.0536 5.8043 16.9289 3.92893C18.8043 2.05357 21.3478 1 24 1C26.6522 1 29.1957 2.05357 31.0711 3.92893C32.9464 5.8043 34 8.34784 34 11V19" stroke="black" stroke-width="2" stroke-miterlimit="10"/>
<path d="M24 38C23.7014 38.0031 23.4104 37.9064 23.1731 37.7252C22.9357 37.544 22.7657 37.2888 22.69 37L21.08 31.62C20.9879 31.1843 20.994 30.7336 21.0979 30.3006C21.2017 29.8675 21.4006 29.463 21.6802 29.1165C21.9597 28.7699 22.313 28.4898 22.7142 28.2967C23.1155 28.1036 23.5547 28.0023 24 28C24.4422 28.0032 24.8782 28.104 25.2768 28.2954C25.6755 28.4867 26.0269 28.7639 26.3059 29.1069C26.585 29.45 26.7847 29.8505 26.8908 30.2797C26.997 30.709 27.0069 31.1564 26.92 31.59L25.31 37C25.2342 37.2888 25.0642 37.544 24.8269 37.7252C24.5896 37.9064 24.2985 38.0031 24 38Z" fill="black"/>
</svg>
