<svg width="48" height="48" viewBox="0 0 48 48" fill="none" xmlns="http://www.w3.org/2000/svg">
<path d="M16 9H42" stroke="black" stroke-width="2" stroke-miterlimit="10"/>
<path d="M16 24H42" stroke="black" stroke-width="2" stroke-miterlimit="10"/>
<path d="M16 39H42" stroke="black" stroke-width="2" stroke-miterlimit="10"/>
<path d="M6 5.5C7.9 5.5 8.3 5.1 8.3 4H10V13H8.2V6.7H6V5.5Z" fill="black"/>
<path d="M12 22.7C12 24.3 10.1 25.2 9.4 25.6C8 26.5 7.8 26.9 7.8 27.7H11.9V29H6C6 26.2 7.1 25.4 8.6 24.5C9.4 24 10.5 23.6 10.5 22.5C10.5 21.6 9.9 21.3 9.1 21.3C8.3 21.3 7.6 21.7 7.6 22.8H6C6 21 7.5 20 9.1 20C10.7 20 12 20.9 12 22.7Z" fill="black"/>
<path d="M8.4 38.7H9C10 38.7 10.3 38.2 10.3 37.4C10.3 36.7 9.8 36.3 9.1 36.3C8.1 36.3 7.7 36.9 7.7 37.7H6.3C6.3 36.1 7.4 35 9 35C10.5 35 11.8 35.9 11.8 37.4C11.8 38.4 11.3 39 10.6 39.3C11.4 39.6 12 40.2 12 41.4C12 43 10.7 44 9 44C7.4 44 6 42.9 6 40.9H7.4C7.4 42 8.1 42.7 9.1 42.7C10 42.7 10.6 42.1 10.6 41.3C10.6 40.5 10.2 39.9 9 39.9H8.4V38.7Z" fill="black"/>
</svg>
