<svg width="48" height="48" viewBox="0 0 48 48" fill="none" xmlns="http://www.w3.org/2000/svg">
<g clip-path="url(#clip0_2001_559)">
<path d="M7 1H1V15C1 20.5 5.5 25 11 25C16.5 25 21 20.5 21 15V1H15" stroke="white" stroke-width="2" stroke-miterlimit="10"/>
<path d="M11 25V32.5C11 40.5 17.5 47 25.5 47C33.5 47 40 40.5 40 32.5V23" stroke="white" stroke-width="2" stroke-miterlimit="10"/>
<path d="M40 23C43.866 23 47 19.866 47 16C47 12.134 43.866 9 40 9C36.134 9 33 12.134 33 16C33 19.866 36.134 23 40 23Z" stroke="white" stroke-width="2" stroke-miterlimit="10"/>
</g>
<defs>
<clipPath id="clip0_2001_559">
<rect width="48" height="48" fill="white"/>
</clipPath>
</defs>
</svg>
