<svg width="48" height="48" viewBox="0 0 48 48" fill="none" xmlns="http://www.w3.org/2000/svg">
<path d="M24 47C29.5228 47 34 36.7025 34 24C34 11.2975 29.5228 1 24 1C18.4772 1 14 11.2975 14 24C14 36.7025 18.4772 47 24 47Z" stroke="white" stroke-width="2" stroke-miterlimit="10"/>
<path d="M29.0999 32.7C17.8999 39 6.49991 40.3 3.59991 35.5C0.699905 30.7 7.59991 21.7 18.7999 15.3C29.9999 8.90001 41.4999 7.70001 44.2999 12.5C47.0999 17.3 40.3999 26.3 29.0999 32.7Z" stroke="white" stroke-width="2" stroke-miterlimit="10"/>
<path d="M29.0998 15.3C40.2998 21.7 47.1998 30.7 44.2998 35.5C41.3998 40.3 30.0998 39 18.8998 32.7C7.6998 26.4 0.799805 17.3 3.5998 12.5C6.3998 7.7 17.8998 9 29.0998 15.3Z" stroke="white" stroke-width="2" stroke-miterlimit="10"/>
<path d="M24 26C25.1046 26 26 25.1046 26 24C26 22.8954 25.1046 22 24 22C22.8954 22 22 22.8954 22 24C22 25.1046 22.8954 26 24 26Z" fill="white"/>
</svg>
