<svg width="48" height="48" viewBox="0 0 48 48" fill="none" xmlns="http://www.w3.org/2000/svg">
<path d="M23 47C34.0457 47 43 38.0457 43 27C43 15.9543 34.0457 7 23 7C11.9543 7 3 15.9543 3 27C3 38.0457 11.9543 47 23 47Z" stroke="white" stroke-width="2" stroke-miterlimit="10"/>
<path d="M41.8 12.5L37 7.7L41.7 4.5L45 7.8L41.8 12.5Z" stroke="white" stroke-width="2" stroke-miterlimit="10"/>
<path d="M23 7V1" stroke="white" stroke-width="2" stroke-miterlimit="10"/>
<path d="M20.7 26.8L31.4 18L32.5 19.1L23.7 29.7C23 30.6 21.8 30.7 20.9 30C20.8 29.9 20.8 29.9 20.7 29.8C19.9 29 19.9 27.8 20.6 27C20.6 26.9 20.7 26.9 20.7 26.8Z" fill="white"/>
<path d="M17 1H29" stroke="white" stroke-width="2" stroke-miterlimit="10"/>
</svg>
